HIERARCHY
ROOT Hips
{
  OFFSET 90.7885 88.945 -76.2838
  CHANNELS 6 Xposition Yposition Zposition Zrotation Xrotation Yrotation
  JOINT LeftUpLeg
  {
    OFFSET 8.64259 1.95398 -2.38835
    CHANNELS 3 Zrotation Xrotation Yrotation
    JOINT LeftLeg
    {
      OFFSET 43.7702 0 0
      CHANNELS 3 Zrotation Xrotation Yrotation
      JOINT LeftFoot
      {
        OFFSET 40.6238 0 0
        CHANNELS 3 Zrotation Xrotation Yrotation
        JOINT LeftToeBase
        {
          OFFSET 12.7242 0 0
          CHANNELS 3 Zrotation Xrotation Yrotation
          End Site
          {
            OFFSET 0 0 0
          }
        }
      }
    }
  }
  JOINT RightUpLeg
  {
    OFFSET -8.2249 1.95398 -2.59336
    CHANNELS 3 Zrotation Xrotation Yrotation
    JOINT RightLeg
    {
      OFFSET 43.5653 0 0
      CHANNELS 3 Zrotation Xrotation Yrotation
      JOINT RightFoot
      {
        OFFSET 40.6238 0 0
        CHANNELS 3 Zrotation Xrotation Yrotation
        JOINT RightToeBase
        {
          OFFSET 12.7242 0 0
          CHANNELS 3 Zrotation Xrotation Yrotation
          End Site
          {
            OFFSET 0 0 0
          }
        }
      }
    }
  }
  JOINT Spine
  {
    OFFSET 0.165834 0.87714 6.61349
    CHANNELS 3 Zrotation Xrotation Yrotation
    JOINT Spine1
    {
      OFFSET 7.38963 1.71661e-005 0
      CHANNELS 3 Zrotation Xrotation Yrotation
      JOINT Spine2
      {
        OFFSET 11.9445 1.14441e-005 0
        CHANNELS 3 Zrotation Xrotation Yrotation
        JOINT Spine3
        {
          OFFSET 14.7254 4.19617e-005 0
          CHANNELS 3 Zrotation Xrotation Yrotation
          JOINT Spine4
          {
            OFFSET 10.9679 0 0
            CHANNELS 3 Zrotation Xrotation Yrotation
            JOINT RightShoulder
            {
              OFFSET 2.46616 -1.6653 3.69651
              CHANNELS 3 Zrotation Xrotation Yrotation
              JOINT RightArm
              {
                OFFSET 13.0012 0 0
                CHANNELS 3 Zrotation Xrotation Yrotation
                JOINT RightForeArm
                {
                  OFFSET 28.7848 1.52588e-005 0
                  CHANNELS 3 Zrotation Xrotation Yrotation
                  JOINT RightHand
                  {
                    OFFSET 26.5688 1.52588e-005 0
                    CHANNELS 3 Zrotation Xrotation Yrotation
                    End Site
                    {
                      OFFSET 0 0 0
                    }
                  }
                }
              }
            }
            JOINT LeftShoulder
            {
              OFFSET 2.38034 -1.29275 -3.7523
              CHANNELS 3 Zrotation Xrotation Yrotation
              JOINT LeftArm
              {
                OFFSET 16.3182 6.10352e-005 0
                CHANNELS 3 Zrotation Xrotation Yrotation
                JOINT LeftForeArm
                {
                  OFFSET 27.0901 0 0
                  CHANNELS 3 Zrotation Xrotation Yrotation
                  JOINT LeftHand
                  {
                    OFFSET 24.5451 1.52588e-005 0
                    CHANNELS 3 Zrotation Xrotation Yrotation
                    End Site
                    {
                      OFFSET 0 0 0
                    }
                  }
                }
              }
            }
            JOINT Neck
            {
              OFFSET 5.0226 -0.0266342 0
              CHANNELS 3 Zrotation Xrotation Yrotation
              JOINT Head
              {
                OFFSET 6.69363 2.86102e-005 0
                CHANNELS 3 Zrotation Xrotation Yrotation
                End Site
                {
                  OFFSET 0 0 0
                }
              }
            }
          }
        }
      }
    }
  }
}
MOTION
Frames:	12
Frame Time:	0.0416667
17.7171 97.4631 -31.6973 -132.499 -77.6717 -134.997 -177.654 -2.8482 85.2118 -24.8471 1.43259 -2.30189 80.6041 6.74351 -2.62069 12.073 -1.18601 3.79242 176.848 16.6027 88.3757 -20.7719 -19.4045 -3.03494 60.8431 -1.958 -0.940256 25.3555 -0.493301 1.8343 -0.079143 8.17458 -89.7591 10.5245 -0.0469432 0.482972 -1.1465 -0.0256394 0.484561 -23.681 -0.189924 0.44654 -3.66837 -0.189928 0.446528 89.4981 -31.031 -107.349 43.5704 -9.5049 5.41899 3.42202 -24.9654 -15.3273 -22.2311 -0.481276 -9.4382 -87.6208 -50.9306 82.4546 -12.3959 4.85898 -32.3494 8.17637 -0.767738 -15.193 2.8581 -0.274809 -8.4028 4.55284 2.85831 -1.88886 -2.03535 3.14534 0.563429 
16.6028 96.8542 -24.3238 -141.973 -80.4459 -144.744 -176.878 -8.90113 86.4579 -20.9185 5.69621 -2.32653 82.8242 8.06147 -2.42436 13.918 -1.53145 3.99266 174.993 16.5476 89.1648 -8.80556 -22.25 -3.15471 59.7769 -0.315285 -0.167222 26.5213 -0.414878 1.41275 -0.309234 8.03735 -89.7264 10.8008 -0.48936 0.591191 -0.870255 -0.462862 0.61215 -23.4054 -0.644412 0.416796 -3.39281 -0.644414 0.416782 89.2042 -32.6945 -107.281 43.9901 -7.85218 7.38293 4.11619 -24.5184 -14.289 -23.3086 -0.438105 -9.39547 -87.5555 -50.5429 82.4843 -15.4415 2.15876 -36.5494 11.4892 4.77357 -18.0856 2.75917 -0.291777 -8.85721 5.07126 2.32694 -3.2098 -2.81603 2.85778 2.05639 
14.856 96.1147 -16.0766 -159.301 -82.6439 -160.673 -174.553 -14.6103 90.3882 -18.4146 9.6696 -2.14449 84.5343 9.63164 -2.85857 16.9169 -2.71452 5.17047 175.9 18.287 90.1857 -16.8908 -19.3947 -2.84698 54.7351 1.80166 0.2071 24.1899 -1.21133 3.58005 -0.444764 7.87563 -89.9846 11.1227 -0.878109 0.114564 -0.54792 -0.872219 0.1531 -23.0854 -0.871939 -0.154661 -3.07279 -0.871938 -0.154659 89.9924 -32.181 -105.965 45.2219 -7.1596 7.02728 5.4508 -22.8176 -11.8096 -21.3821 -0.347234 -9.73888 -87.8208 -53.2316 82.5515 -19.7505 0.00140919 -34.7895 14.0996 8.42055 -19.1068 2.06521 -0.266322 -8.9186 6.54152 1.98452 -1.62155 -3.44371 2.23432 2.09059 
12.9161 96.2434 -7.40086 177.88 -82.3752 179.212 -171.191 -18.1945 96.2834 -20.4246 14.6281 -0.286362 78.1582 8.08971 -1.13173 33.0641 -1.11496 0.751337 175.436 16.9896 92.725 -27.001 -17.4919 -1.53754 60.6934 -0.645801 -1.8229 21.002 -1.13618 3.83442 -0.477034 7.80913 -90.3437 11.2542 -1.10929 -0.573773 -0.416407 -1.13346 -0.524404 -22.9533 -0.885568 -0.880646 -2.94059 -0.885567 -0.880642 90.0304 -31.7876 -106.034 44.9669 -7.33713 6.09331 4.73521 -22.2363 -12.1021 -21.1094 -0.331245 -9.69524 -87.6381 -53.9078 82.927 -20.5138 5.18485 -27.4285 9.78984 3.88166 -11.9321 1.83607 -0.227859 -8.16402 5.9473 1.65986 0.444679 -2.82457 1.53536 1.46751 
11.0818 96.7445 -0.406617 153.154 -80.7846 156.273 -169.301 -10.1084 101.03 -39.3506 21.4157 2.7938 68.7318 4.70323 0.636023 31.5722 2.40073 -4.22803 173.932 11.5525 94.3783 -27.8287 -14.6113 0.185074 66.2735 -3.05675 -2.78767 20.9951 -1.89374 5.34406 -0.364101 7.76479 -90.5241 11.3395 -0.968781 -0.946696 -0.331426 -1.0095 -0.903144 -22.8653 -0.6395 -1.19407 -2.85264 -0.639496 -1.19406 89.8082 -31.5984 -106.533 43.202 -7.73334 4.09269 4.75935 -22.5457 -13.939 -22.5229 -0.284396 -9.79597 -87.5959 -52.5871 82.7709 -21.4925 14.3655 -19.8742 4.29585 1.40547 -2.4758 -2.73062 -0.0811613 -7.36602 5.08659 0.349298 0.998053 -3.36473 0.157187 0.256804 
10.0668 96.6181 4.57679 140.575 -78.3283 144.802 -170.809 3.3653 101.696 -60.7753 15.6072 5.09041 61.2977 1.7051 0.635529 12.8775 4.77473 -2.88036 172.799 7.14804 95.1515 -28.3061 -12.2163 1.64193 70.024 -4.62481 -1.25965 22.527 -1.38957 4.16319 0.0315975 7.98899 -90.6694 10.8923 -0.246442 -1.3075 -0.779289 -0.303743 -1.29539 -23.309 0.157856 -1.32112 -3.29635 0.157867 -1.32112 89.9784 -30.384 -106.655 40.2946 -8.30279 -0.199263 2.92447 -24.0027 -15.9982 -23.494 -0.362462 -9.65443 -88.0699 -54.3653 82.3818 -22.2303 15.1566 -11.8854 3.38177 3.38616 -1.38795 -2.60878 -0.0855393 -5.80837 6.73765 -1.55741 1.89204 -2.55959 -1.90076 -0.0249501 
9.89441 96.7989 8.91809 135.563 -76.7208 138.664 -172.007 13.4789 98.3782 -64.707 9.38636 3.6835 69.2643 5.11061 -0.0765837 11.2248 2.88184 -0.48972 172.13 3.53261 94.0349 -28.2996 -10.3689 1.48855 74.1971 -5.83236 -0.883165 20.4175 -1.68981 5.00069 0.611112 8.1356 -90.5944 10.6074 0.943794 -1.26708 -1.06384 0.887105 -1.30739 -23.5988 1.28095 -0.924876 -3.5861 1.28095 -0.924882 89.3348 -30.2504 -107.971 35.0441 -8.44592 -4.08604 3.42647 -24.2075 -15.138 -25.6256 -0.440012 -8.93984 -87.9033 -55.9555 82.8803 -24.1625 11.4786 -2.92455 4.87842 -2.877 -5.48256 -1.3501 -0.101302 -5.65743 5.35757 -3.42304 2.88208 -0.646976 -3.89932 -0.66296 
10.6321 97.0539 13.1788 127.511 -75.9055 128.383 -173.812 18.9084 92.7067 -51.1531 10.2529 0.787877 71.2486 5.85367 -0.611797 14.554 2.14389 -0.257404 170.918 0.374166 91.6258 -26.6713 -10.4052 1.14422 75.6688 -5.68601 -0.195045 22.1984 -0.809107 2.98517 1.01002 8.108 -90.3686 10.6662 1.8418 -0.90071 -1.00384 1.80039 -0.980922 -23.549 2.02734 -0.305339 -3.5364 2.02733 -0.305339 89.5056 -28.7132 -108.26 32.5007 -8.40363 -8.05913 3.37702 -23.6458 -14.5543 -24.696 -0.48334 -8.65516 -86.9593 -54.564 84.0035 -26.611 11.1461 2.39992 5.07332 -3.23869 -8.95601 -1.96742 -0.100986 -6.06169 3.62191 -4.49561 4.2325 -0.732152 -5.15366 -1.34019 
11.6405 97.273 17.5204 120.531 -75.7164 120.398 -176.077 19.3035 88.8564 -27.2759 3.50715 -2.0882 65.0248 3.4047 -1.88895 14.3221 1.61924 0.374648 171.011 -2.91987 91.0118 -22.867 -9.06669 0.348679 76.9799 -6.29716 -2.26426 23.5275 -2.24433 5.82188 1.27961 8.02599 -90.34 10.8327 2.39091 -0.899282 -0.83645 2.34901 -1.00368 -23.3891 2.55058 -0.138705 -3.37643 2.55058 -0.138703 89.8571 -27.0619 -108.231 30.4549 -9.2402 -11.6463 2.61185 -23.9026 -15.7168 -26.1556 -0.496591 -8.49683 -86.2771 -55.0493 85.046 -27.8316 10.0029 4.86016 5.72287 -1.64154 -10.3733 -1.26265 -0.100314 -5.38064 3.01545 -4.71229 7.6329 -0.683143 -5.92263 -2.40251 
12.7607 96.7344 22.4946 118.086 -76.1896 118.99 -179.006 16.2596 87.8659 -8.25259 -22.3058 -3.7445 61.9876 3.83142 -1.30067 14.2174 0.716532 1.41437 171.376 -6.20985 91.8355 -21.8605 -8.88731 0.266475 79.184 -7.89955 -3.47043 22.4216 -1.99432 5.40955 1.6119 7.92985 -90.5774 11.0344 2.94121 -1.43101 -0.634178 2.87538 -1.55914 -23.195 3.23518 -0.480106 -3.18233 3.23518 -0.480113 90.2369 -26.1111 -107.842 30.5088 -9.60713 -13.7341 0.93187 -25.4997 -18.4451 -25.1741 -0.454643 -9.34724 -86.3398 -57.6606 85.3114 -28.0481 8.5822 5.64091 5.78736 -3.95264 -10.2772 -1.78389 -0.0966389 -5.74816 2.34825 -5.25702 10.8865 -0.318525 -6.95163 -2.93575 
13.9065 95.9401 28.8711 117.78 -76.241 119.614 -179.08 17.6354 87.8227 -13.5645 -35.6181 -5.19597 63.6294 2.90464 -0.814786 9.36186 -0.48111 3.39374 171.322 -11.5954 92.2382 -19.7187 -9.34263 0.463995 80.4073 -9.07809 -3.70862 23.5248 -1.39028 4.02442 1.78457 7.74714 -90.6906 11.4051 3.2287 -1.70114 -0.263161 3.15072 -1.84167 -22.8285 3.59053 -0.651125 -2.81583 3.59053 -0.651129 88.9705 -27.2408 -109.974 31.8345 -9.97264 -13.6766 1.543 -25.7912 -17.9463 -25.6598 -0.525988 -8.97872 -85.3369 -57.7478 86.7106 -29.2349 8.23449 5.31698 5.81812 -4.77831 -10.2218 -3.37636 -0.0737726 -6.37495 1.31421 -5.30613 11.2268 -1.12028 -6.94152 -2.34026 
15.4973 96.2833 35.8103 116.746 -76.6464 117.949 -178.104 18.1246 86.9963 -21.3335 -29.8543 -5.61606 65.5263 2.03802 1.73907 1.32521 3.03371 0.976363 170.513 -14.594 90.5535 -20.0877 -9.49627 0.140117 75.0284 -7.06652 -2.55999 33.3039 -2.07933 4.33339 1.88603 7.49282 -90.5192 11.9143 3.50572 -1.41354 0.247196 3.44012 -1.56662 -22.3254 3.76827 -0.293212 -2.31276 3.76828 -0.293211 87.5816 -28.7142 -112.106 35.5296 -10.9556 -12.6923 4.00769 -25.8424 -13.6876 -23.6245 -0.483977 -9.513 -84.3798 -57.2893 87.9884 -28.6946 7.77306 3.12776 5.98471 -5.68922 -9.27099 -2.48801 -0.0883008 -6.22171 0.265151 -4.91167 10.9486 -2.45599 -6.40087 -1.27825 
